<svg version="1.1" viewBox="0.0 0.0 96.0 96.0" fill="none" stroke="none" stroke-linecap="square" stroke-miterlimit="10" xmlns:xlink="http://www.w3.org/1999/xlink" xmlns="http://www.w3.org/2000/svg"><clipPath id="p.0"><path d="m0 0l96.0 0l0 96.0l-96.0 0l0 -96.0z" clip-rule="nonzero"/></clipPath><g clip-path="url(#p.0)"><path fill="#000000" fill-opacity="0.0" d="m0 0l96.0 0l0 96.0l-96.0 0z" fill-rule="evenodd"/><path fill="#000000" fill-opacity="0.0" d="m0 -7.1364827l96.0 0l0 96.0l-96.0 0z" fill-rule="evenodd"/><path fill="#000000" d="m18.438164 64.66351l-4.5625 0l10.96875 -15.6875l10.953125 15.6875l-4.0 0l0 4.0l14.078125 0l0 -4.0l-3.75 0l-13.6875 -19.515625l12.796875 -18.25l3.4375 0l0 -4.0l-14.078125 0l0 4.0l4.484375 0l-9.671875 13.921875l-9.765625 -13.921875l4.0 0l0 -4.0l-14.078125 0l0 4.0l3.75 0l12.484375 17.84375l-14.078125 19.921875l-3.359375 0l0 4.0l14.078125 0l0 -4.0zm37.36371 22.15625l7.203125 0q2.46875 0 3.671875 -1.234375q1.203125 -1.234375 2.25 -3.96875l20.796875 -54.71875l3.109375 0l0 -4.0l-13.265625 0l0 4.0l4.46875 0l-13.28125 35.6875l-13.359375 -35.6875l4.5625 0l0 -4.0l-13.28125 0l0 4.0l3.125 0l16.3125 42.8125l-3.671875 9.828125q-0.40625 1.125 -0.734375 1.59375q-0.3125 0.484375 -1.03125 0.84375q-0.71875 0.375 -2.15625 0.453125l-4.71875 0.390625l0 4.0z" fill-rule="nonzero"/></g></svg>